<mxfile host="app.diagrams.net" agent="Mozilla/5.0 (Windows NT 10.0; Win64; x64) AppleWebKit/537.36 (KHTML, like Gecko) Chrome/138.0.0.0 Safari/537.36 Edg/138.0.0.0" version="28.0.7">
  <diagram name="Page-1" id="jPZeyLfda4-hvCJYHWLF">
    <mxGraphModel dx="1956" dy="850" grid="1" gridSize="10" guides="1" tooltips="1" connect="1" arrows="1" fold="1" page="1" pageScale="1" pageWidth="850" pageHeight="1100" math="0" shadow="0">
      <root>
        <mxCell id="0" />
        <mxCell id="1" parent="0" />
        <mxCell id="pOhcAQxTCVFlBjA3_fs0-31" value="" style="rounded=0;whiteSpace=wrap;html=1;" vertex="1" parent="1">
          <mxGeometry x="-760" y="40" width="1360" height="680" as="geometry" />
        </mxCell>
        <mxCell id="pOhcAQxTCVFlBjA3_fs0-2" value="&lt;font style=&quot;font-size: 18px;&quot;&gt;开始&lt;/font&gt;" style="rounded=1;whiteSpace=wrap;html=1;" vertex="1" parent="1">
          <mxGeometry x="-120" y="80" width="120" height="40" as="geometry" />
        </mxCell>
        <mxCell id="pOhcAQxTCVFlBjA3_fs0-3" value="&lt;font style=&quot;font-size: 18px;&quot;&gt;选择产品类型&lt;/font&gt;" style="rounded=0;whiteSpace=wrap;html=1;" vertex="1" parent="1">
          <mxGeometry x="-120" y="160" width="120" height="40" as="geometry" />
        </mxCell>
        <mxCell id="pOhcAQxTCVFlBjA3_fs0-4" value="&lt;font style=&quot;font-size: 18px;&quot;&gt;是开发板目录？&lt;/font&gt;" style="rhombus;whiteSpace=wrap;html=1;" vertex="1" parent="1">
          <mxGeometry x="-165" y="240" width="210" height="80" as="geometry" />
        </mxCell>
        <mxCell id="pOhcAQxTCVFlBjA3_fs0-8" value="&lt;font style=&quot;font-size: 18px;&quot;&gt;hb set&lt;/font&gt;" style="strokeWidth=2;html=1;shape=mxgraph.flowchart.terminator;whiteSpace=wrap;" vertex="1" parent="1">
          <mxGeometry x="300" y="160" width="100" height="40" as="geometry" />
        </mxCell>
        <mxCell id="pOhcAQxTCVFlBjA3_fs0-9" value="&lt;font style=&quot;font-size: 18px;&quot;&gt;hb build&lt;/font&gt;" style="strokeWidth=2;html=1;shape=mxgraph.flowchart.terminator;whiteSpace=wrap;" vertex="1" parent="1">
          <mxGeometry x="300" y="440" width="100" height="40" as="geometry" />
        </mxCell>
        <mxCell id="pOhcAQxTCVFlBjA3_fs0-24" style="edgeStyle=orthogonalEdgeStyle;rounded=0;orthogonalLoop=1;jettySize=auto;html=1;entryX=0.5;entryY=0;entryDx=0;entryDy=0;strokeColor=default;endArrow=none;endFill=0;" edge="1" parent="1" source="pOhcAQxTCVFlBjA3_fs0-10" target="pOhcAQxTCVFlBjA3_fs0-11">
          <mxGeometry relative="1" as="geometry" />
        </mxCell>
        <mxCell id="pOhcAQxTCVFlBjA3_fs0-10" value="&lt;font style=&quot;font-size: 18px;&quot;&gt;选择产品类型&lt;/font&gt;" style="rounded=0;whiteSpace=wrap;html=1;" vertex="1" parent="1">
          <mxGeometry x="-320" y="360" width="120" height="40" as="geometry" />
        </mxCell>
        <mxCell id="pOhcAQxTCVFlBjA3_fs0-28" style="edgeStyle=orthogonalEdgeStyle;rounded=0;orthogonalLoop=1;jettySize=auto;html=1;entryX=0.5;entryY=0;entryDx=0;entryDy=0;" edge="1" parent="1" source="pOhcAQxTCVFlBjA3_fs0-11" target="pOhcAQxTCVFlBjA3_fs0-15">
          <mxGeometry relative="1" as="geometry">
            <Array as="points">
              <mxPoint x="-260" y="520" />
              <mxPoint x="-60" y="520" />
            </Array>
          </mxGeometry>
        </mxCell>
        <mxCell id="pOhcAQxTCVFlBjA3_fs0-11" value="&lt;font style=&quot;font-size: 18px;&quot;&gt;编辑部件&lt;/font&gt;" style="rounded=0;whiteSpace=wrap;html=1;" vertex="1" parent="1">
          <mxGeometry x="-320" y="440" width="120" height="40" as="geometry" />
        </mxCell>
        <mxCell id="pOhcAQxTCVFlBjA3_fs0-27" style="edgeStyle=orthogonalEdgeStyle;rounded=0;orthogonalLoop=1;jettySize=auto;html=1;" edge="1" parent="1" source="pOhcAQxTCVFlBjA3_fs0-12" target="pOhcAQxTCVFlBjA3_fs0-15">
          <mxGeometry relative="1" as="geometry">
            <Array as="points">
              <mxPoint x="-460" y="520" />
              <mxPoint x="-60" y="520" />
            </Array>
          </mxGeometry>
        </mxCell>
        <mxCell id="pOhcAQxTCVFlBjA3_fs0-12" value="&lt;font style=&quot;font-size: 18px;&quot;&gt;编译产品&lt;/font&gt;" style="rounded=0;whiteSpace=wrap;html=1;" vertex="1" parent="1">
          <mxGeometry x="-520" y="440" width="120" height="40" as="geometry" />
        </mxCell>
        <mxCell id="pOhcAQxTCVFlBjA3_fs0-29" style="edgeStyle=orthogonalEdgeStyle;rounded=0;orthogonalLoop=1;jettySize=auto;html=1;" edge="1" parent="1" source="pOhcAQxTCVFlBjA3_fs0-13">
          <mxGeometry relative="1" as="geometry">
            <mxPoint x="-60" y="560" as="targetPoint" />
          </mxGeometry>
        </mxCell>
        <mxCell id="pOhcAQxTCVFlBjA3_fs0-13" value="&lt;font style=&quot;font-size: 18px;&quot;&gt;编译模块&lt;/font&gt;" style="rounded=0;whiteSpace=wrap;html=1;" vertex="1" parent="1">
          <mxGeometry x="-120" y="440" width="120" height="40" as="geometry" />
        </mxCell>
        <mxCell id="pOhcAQxTCVFlBjA3_fs0-26" style="edgeStyle=orthogonalEdgeStyle;rounded=0;orthogonalLoop=1;jettySize=auto;html=1;" edge="1" parent="1" source="pOhcAQxTCVFlBjA3_fs0-14" target="pOhcAQxTCVFlBjA3_fs0-9">
          <mxGeometry relative="1" as="geometry" />
        </mxCell>
        <mxCell id="pOhcAQxTCVFlBjA3_fs0-30" style="edgeStyle=orthogonalEdgeStyle;rounded=0;orthogonalLoop=1;jettySize=auto;html=1;entryX=0.5;entryY=0;entryDx=0;entryDy=0;" edge="1" parent="1" source="pOhcAQxTCVFlBjA3_fs0-14" target="pOhcAQxTCVFlBjA3_fs0-15">
          <mxGeometry relative="1" as="geometry">
            <Array as="points">
              <mxPoint x="140" y="520" />
              <mxPoint x="-60" y="520" />
            </Array>
          </mxGeometry>
        </mxCell>
        <mxCell id="pOhcAQxTCVFlBjA3_fs0-14" value="&lt;font style=&quot;font-size: 17px;&quot;&gt;编译芯片解决方案&lt;/font&gt;" style="rounded=0;whiteSpace=wrap;html=1;" vertex="1" parent="1">
          <mxGeometry x="80" y="440" width="120" height="40" as="geometry" />
        </mxCell>
        <mxCell id="pOhcAQxTCVFlBjA3_fs0-15" value="&lt;font style=&quot;font-size: 18px;&quot;&gt;结束&lt;/font&gt;" style="rounded=1;whiteSpace=wrap;html=1;" vertex="1" parent="1">
          <mxGeometry x="-120" y="560" width="120" height="40" as="geometry" />
        </mxCell>
        <mxCell id="pOhcAQxTCVFlBjA3_fs0-16" value="" style="endArrow=classic;html=1;rounded=0;exitX=0.5;exitY=1;exitDx=0;exitDy=0;entryX=0.5;entryY=0;entryDx=0;entryDy=0;" edge="1" parent="1" source="pOhcAQxTCVFlBjA3_fs0-2" target="pOhcAQxTCVFlBjA3_fs0-3">
          <mxGeometry width="50" height="50" relative="1" as="geometry">
            <mxPoint x="80" y="140" as="sourcePoint" />
            <mxPoint x="130" y="90" as="targetPoint" />
          </mxGeometry>
        </mxCell>
        <mxCell id="pOhcAQxTCVFlBjA3_fs0-17" value="" style="endArrow=classic;html=1;rounded=0;exitX=0.5;exitY=1;exitDx=0;exitDy=0;" edge="1" parent="1" source="pOhcAQxTCVFlBjA3_fs0-3">
          <mxGeometry width="50" height="50" relative="1" as="geometry">
            <mxPoint x="-70" y="150" as="sourcePoint" />
            <mxPoint x="-60" y="240" as="targetPoint" />
          </mxGeometry>
        </mxCell>
        <mxCell id="pOhcAQxTCVFlBjA3_fs0-18" value="" style="endArrow=classic;html=1;rounded=0;exitX=1;exitY=0.5;exitDx=0;exitDy=0;entryX=0.5;entryY=0;entryDx=0;entryDy=0;" edge="1" parent="1" source="pOhcAQxTCVFlBjA3_fs0-4" target="pOhcAQxTCVFlBjA3_fs0-14">
          <mxGeometry width="50" height="50" relative="1" as="geometry">
            <mxPoint x="-60.10000000000002" y="330" as="sourcePoint" />
            <mxPoint x="-60.10000000000002" y="370" as="targetPoint" />
            <Array as="points">
              <mxPoint x="140" y="280" />
            </Array>
          </mxGeometry>
        </mxCell>
        <mxCell id="pOhcAQxTCVFlBjA3_fs0-19" value="Yes" style="edgeLabel;html=1;align=center;verticalAlign=middle;resizable=0;points=[];" vertex="1" connectable="0" parent="pOhcAQxTCVFlBjA3_fs0-18">
          <mxGeometry x="0.108" y="1" relative="1" as="geometry">
            <mxPoint as="offset" />
          </mxGeometry>
        </mxCell>
        <mxCell id="pOhcAQxTCVFlBjA3_fs0-20" value="" style="endArrow=classic;html=1;rounded=0;exitX=0;exitY=0.5;exitDx=0;exitDy=0;entryX=0.5;entryY=0;entryDx=0;entryDy=0;" edge="1" parent="1" source="pOhcAQxTCVFlBjA3_fs0-4" target="pOhcAQxTCVFlBjA3_fs0-10">
          <mxGeometry width="50" height="50" relative="1" as="geometry">
            <mxPoint x="-180" y="340" as="sourcePoint" />
            <mxPoint x="-180" y="380" as="targetPoint" />
            <Array as="points">
              <mxPoint x="-260" y="280" />
            </Array>
          </mxGeometry>
        </mxCell>
        <mxCell id="pOhcAQxTCVFlBjA3_fs0-21" value="No" style="edgeLabel;html=1;align=center;verticalAlign=middle;resizable=0;points=[];" vertex="1" connectable="0" parent="pOhcAQxTCVFlBjA3_fs0-20">
          <mxGeometry x="0.4775" y="-2" relative="1" as="geometry">
            <mxPoint as="offset" />
          </mxGeometry>
        </mxCell>
        <mxCell id="pOhcAQxTCVFlBjA3_fs0-22" value="" style="endArrow=classic;html=1;rounded=0;exitX=0;exitY=0.5;exitDx=0;exitDy=0;entryX=0.5;entryY=0;entryDx=0;entryDy=0;" edge="1" parent="1" source="pOhcAQxTCVFlBjA3_fs0-10" target="pOhcAQxTCVFlBjA3_fs0-12">
          <mxGeometry width="50" height="50" relative="1" as="geometry">
            <mxPoint x="-220" y="410" as="sourcePoint" />
            <mxPoint x="-220" y="450" as="targetPoint" />
            <Array as="points">
              <mxPoint x="-460" y="380" />
            </Array>
          </mxGeometry>
        </mxCell>
        <mxCell id="pOhcAQxTCVFlBjA3_fs0-23" value="" style="endArrow=classic;html=1;rounded=0;exitX=1;exitY=0.5;exitDx=0;exitDy=0;entryX=0.5;entryY=0;entryDx=0;entryDy=0;" edge="1" parent="1" source="pOhcAQxTCVFlBjA3_fs0-10" target="pOhcAQxTCVFlBjA3_fs0-13">
          <mxGeometry width="50" height="50" relative="1" as="geometry">
            <mxPoint x="-340" y="430" as="sourcePoint" />
            <mxPoint x="-340" y="470" as="targetPoint" />
            <Array as="points">
              <mxPoint x="-60" y="380" />
            </Array>
          </mxGeometry>
        </mxCell>
        <mxCell id="pOhcAQxTCVFlBjA3_fs0-25" style="edgeStyle=orthogonalEdgeStyle;rounded=0;orthogonalLoop=1;jettySize=auto;html=1;entryX=0;entryY=0.5;entryDx=0;entryDy=0;entryPerimeter=0;endArrow=none;endFill=0;dashed=1;" edge="1" parent="1" source="pOhcAQxTCVFlBjA3_fs0-3" target="pOhcAQxTCVFlBjA3_fs0-8">
          <mxGeometry relative="1" as="geometry" />
        </mxCell>
      </root>
    </mxGraphModel>
  </diagram>
</mxfile>
